<svg width="48" height="48" viewBox="0 0 48 48" fill="none" xmlns="http://www.w3.org/2000/svg">
<path d="M44 20.0007V32.0007M12 25.0007V32.0007C12 33.592 13.2643 35.1181 15.5147 36.2434C17.7652 37.3686 20.8174 38.0007 24 38.0007C27.1826 38.0007 30.2349 37.3686 32.4853 36.2434C34.7357 35.1181 36 33.592 36 32.0007V25.0007M42.84 21.8447C43.1981 21.6868 43.5019 21.4273 43.7139 21.0983C43.9259 20.7694 44.0367 20.3855 44.0327 19.9942C44.0286 19.6029 43.9099 19.2214 43.6911 18.8969C43.4724 18.5724 43.1632 18.3192 42.802 18.1687L25.66 10.3607C25.1389 10.123 24.5728 10 24 10C23.4272 10 22.8611 10.123 22.34 10.3607L5.20002 18.1607C4.84396 18.3167 4.54106 18.573 4.32836 18.8983C4.11566 19.2237 4.00238 19.604 4.00238 19.9927C4.00238 20.3814 4.11566 20.7617 4.32836 21.0871C4.54106 21.4124 4.84396 21.6688 5.20002 21.8247L22.34 29.6407C22.8611 29.8784 23.4272 30.0014 24 30.0014C24.5728 30.0014 25.1389 29.8784 25.66 29.6407L42.84 21.8447Z" stroke="url(#paint0_linear_368_97)" stroke-width="3.5" stroke-linecap="round" stroke-linejoin="round"/>
<defs>
<linearGradient id="paint0_linear_368_97" x1="24.0176" y1="10" x2="24.0176" y2="38.0007" gradientUnits="userSpaceOnUse">
<stop stop-color="#7962ED"/>
<stop offset="1" stop-color="#BDB9F9"/>
</linearGradient>
</defs>
</svg>
