<svg width="76" height="74" viewBox="0 0 76 74" fill="none" xmlns="http://www.w3.org/2000/svg">
<ellipse cx="38" cy="37" rx="38" ry="37" fill="url(#paint0_linear_1427_4972)"/>
<path d="M23.2717 50.2881V38.6927H36.5056V54.8614H28.0431C26.5427 54.8614 25.3723 54.4713 24.5321 53.6911C23.6918 52.9229 23.2717 51.7885 23.2717 50.2881ZM39.4584 54.8614V38.6927H52.7103V50.2881C52.7103 51.7885 52.2902 52.9229 51.4499 53.6911C50.6097 54.4713 49.4393 54.8614 47.9389 54.8614H39.4584ZM20.697 34.0834V29.7081C20.697 28.7478 20.967 28.0636 21.5072 27.6555C22.0594 27.2354 22.7976 27.0253 23.7218 27.0253H27.8991C27.3709 26.5332 26.9568 25.957 26.6567 25.2968C26.3566 24.6246 26.2066 23.8924 26.2066 23.1002C26.2066 21.9358 26.4826 20.9035 27.0348 20.0033C27.599 19.103 28.3492 18.4008 29.2855 17.8967C30.2337 17.3805 31.29 17.1224 32.4544 17.1224C33.7268 17.1224 34.8491 17.4525 35.8214 18.1127C36.8057 18.7729 37.5259 19.7092 37.982 20.9215C38.4381 19.7092 39.1583 18.7729 40.1426 18.1127C41.1269 17.4525 42.2492 17.1224 43.5096 17.1224C44.6739 17.1224 45.7242 17.3805 46.6605 17.8967C47.6088 18.4008 48.359 19.103 48.9112 20.0033C49.4753 20.9035 49.7574 21.9358 49.7574 23.1002C49.7574 23.8924 49.6074 24.6246 49.3073 25.2968C49.0192 25.957 48.6111 26.5332 48.0829 27.0253H52.2601C53.2324 27.0253 53.9766 27.2354 54.4928 27.6555C55.021 28.0636 55.285 28.7478 55.285 29.7081V34.0834C55.285 35.0436 55.021 35.7338 54.4928 36.154C53.9766 36.5621 53.2324 36.7661 52.2601 36.7661H39.4584V27.0253H42.2672C43.6837 27.0253 44.782 26.6472 45.5622 25.891C46.3544 25.1348 46.7505 24.2585 46.7505 23.2622C46.7505 22.2659 46.4265 21.4977 45.7783 20.9575C45.1421 20.4054 44.3258 20.1293 43.3296 20.1293C42.2612 20.1293 41.349 20.5134 40.5928 21.2816C39.8365 22.0379 39.4584 23.0822 39.4584 24.4146V27.0253H36.5056V24.4146C36.5056 23.0822 36.1275 22.0379 35.3712 21.2816C34.627 20.5134 33.7148 20.1293 32.6344 20.1293C31.6502 20.1293 30.8339 20.4054 30.1857 20.9575C29.5375 21.4977 29.2134 22.2659 29.2134 23.2622C29.2134 24.2585 29.6036 25.1348 30.3838 25.891C31.176 26.6472 32.2803 27.0253 33.6967 27.0253H36.5056V36.7661H23.7218C22.7496 36.7661 21.9993 36.5621 21.4712 36.154C20.955 35.7338 20.697 35.0436 20.697 34.0834Z" fill="url(#paint1_linear_1427_4972)" fill-opacity="0.9"/>
<defs>
<linearGradient id="paint0_linear_1427_4972" x1="38" y1="0" x2="38" y2="74" gradientUnits="userSpaceOnUse">
<stop stop-color="#7962ED"/>
<stop offset="1" stop-color="#BDB9F9"/>
</linearGradient>
<linearGradient id="paint1_linear_1427_4972" x1="20.5" y1="18.5" x2="50" y2="57" gradientUnits="userSpaceOnUse">
<stop stop-color="white"/>
<stop offset="1" stop-color="white" stop-opacity="0.2"/>
</linearGradient>
</defs>
</svg>
